# xmcd
#
# Track frame offsets:
#	150
#	12916
#	25633
#	39100
#	49648
#	69239
#	82191
#	100975
#	111568
#	123131
#	139359
#	151675
#	168714
#	182653
#	192774
#
# Disc length: 2789 seconds
#
# Revision: 1
# Processed by: cddbd v1.5.2PL0 Copyright (c) Steve Scherf et al.
# Submitted via: audiograbber 1.83.01
#
DISCID=bd0ae30f
DTITLE=Various Artist - SA-Huumorinkukkia:30 Suosikkia - CD 1 - 2
DYEAR=2015
DGENRE=Pop
TTITLE0=Jope Ruonansuu - Stressman
TTITLE1=Jaakko Teppo - Pers'Aukisten Piiritarkistaja
TTITLE2=Karim Z. Yskowiz - Somepoppia
TTITLE3=Juha Vainio - Matkarakastaja
TTITLE4=Jean-Pierre Kusela - Saattokeikka Rap
TTITLE5=Vee-Pee Lehto - Kuule Sie Amigoski
TTITLE6=Mr. Mallorca - Pump Up The Sightseeing
TTITLE7=Vilperin Perikunta - Piirimyyjä
TTITLE8=Leo Jokela - Nainen, Poliisi Ja Taksi
TTITLE9=Turo's Hevi Gee - Tampere
TTITLE10=Itse Valtiaat - Itälän Ämmän Poikkii
TTITLE11=Timo Harjakainen - Firman Piikkiin
TTITLE12=Jukka Virtanen - Menevä Mies Ja Tuleva
TTITLE13=Martti Innanen - Yö Turengissa
TTITLE14=Retuperän WBK - Guapita
EXTD=
EXTT0=
EXTT1=
EXTT2=
EXTT3=
EXTT4=
EXTT5=
EXTT6=
EXTT7=
EXTT8=
EXTT9=
EXTT10=
EXTT11=
EXTT12=
EXTT13=
EXTT14=
PLAYORDER=
